<?xml version="1.0" encoding="UTF-8"?>
<svg version="1.1" xmlns="http://www.w3.org/2000/svg" width="656" height="553">
<path d="M0 0 C1.1653125 0.19980469 2.330625 0.39960937 3.53125 0.60546875 C22.79950568 3.97741349 42.41715484 13.81997561 59 24 C62.4476819 26.09540599 62.4476819 26.09540599 66 28 C67.82909573 29.4797179 69.63838554 30.98397117 71.4375 32.5 C75.41485749 35.85080389 79.42811704 39.13883101 83.5 42.375 C117.13452894 69.96884486 136.80398628 110.04912902 141.81469727 152.92626953 C147.88394947 220.84751878 108.54962122 279.65296858 68 330 C67.19691406 331.0003125 66.39382813 332.000625 65.56640625 333.03125 C61.27510068 338.31800462 56.84725093 343.42783827 52.2578125 348.45703125 C49.87767687 351.13777224 47.62268159 353.89504134 45.375 356.6875 C42.31103547 360.4749006 39.14900283 363.96981472 35.65234375 367.35546875 C33.99154399 369.00841603 32.46377609 370.72251638 30.9375 372.5 C26.34300513 377.82264026 21.50978835 382.92046938 16.69921875 388.046875 C14.4155227 390.48108604 12.14546871 392.92610551 9.89453125 395.390625 C1.94304861 404.06462878 -6.31437132 412.4221394 -14.625 420.75 C-15.20624634 421.33383453 -15.78749268 421.91766907 -16.38635254 422.51919556 C-18.05932624 424.19804919 -19.73600315 425.87310618 -21.4140625 427.546875 C-22.16953873 428.3053196 -22.16953873 428.3053196 -22.9402771 429.0790863 C-28.14121236 434.24604328 -28.14121236 434.24604328 -31 436 C-37.84169258 435.28715299 -41.28117374 431.29345859 -45.8125 426.4375 C-47.1295738 425.05934452 -48.44849494 423.68295141 -49.76953125 422.30859375 C-50.34292236 421.69814209 -50.91631348 421.08769043 -51.50708008 420.45874023 C-52.95540366 418.89512245 -52.95540366 418.89512245 -55 418 C-55 417.34 -55 416.68 -55 416 C-55.66 416 -56.32 416 -57 416 C-57 415.34 -57 414.68 -57 414 C-57.58265625 413.7421875 -58.1653125 413.484375 -58.765625 413.21875 C-61.1802903 411.90165983 -62.81740177 410.44911616 -64.75 408.5 C-65.36359375 407.8915625 -65.9771875 407.283125 -66.609375 406.65625 C-68 405 -68 405 -68 403 C-68.58136719 402.74476563 -69.16273438 402.48953125 -69.76171875 402.2265625 C-75.12447832 399.28780769 -79.19879701 393.98704604 -83.125 389.375 C-87.11985155 384.7174081 -91.50459809 380.46633624 -95.86547852 376.15625 C-99.62599176 372.42351012 -103.1875749 368.60206839 -106.6015625 364.546875 C-108.51859176 362.42636219 -110.75997612 360.7648673 -113 359 C-113 358.34 -113 357.68 -113 357 C-114.18713976 355.47289041 -114.18713976 355.47289041 -115.78125 353.875 C-116.37188232 353.25608887 -116.96251465 352.63717773 -117.57104492 351.99951172 C-118.2076001 351.33967285 -118.84415527 350.67983398 -119.5 350 C-124.24292752 345.00526184 -128.78127439 339.97980724 -133.00390625 334.53125 C-135.46557825 331.40959941 -138.041393 328.39582616 -140.625 325.375 C-144.19908377 321.18774549 -147.65629154 316.9540411 -150.87890625 312.48828125 C-152.06404242 310.84306046 -152.06404242 310.84306046 -154 309 C-154.85453099 307.76439438 -155.68425986 306.51155161 -156.5 305.25 C-158.74756431 301.82955625 -161.07757585 298.48802609 -163.48583984 295.17871094 C-183.39733914 267.75329321 -205.76489239 232.64416797 -208 198 C-208.66 197.67 -209.32 197.34 -210 197 C-210.44238281 194.31396484 -210.44238281 194.31396484 -210.703125 190.7109375 C-210.77407883 189.74109673 -210.77407883 189.74109673 -210.84646606 188.75166321 C-210.99499833 186.62676593 -211.12490542 184.5014003 -211.25 182.375 C-211.2942511 181.65059723 -211.3385022 180.92619446 -211.38409424 180.17984009 C-214.1483788 133.25510442 -199.13732953 92.72685336 -169 57 C-168.39800781 56.26265625 -167.79601562 55.5253125 -167.17578125 54.765625 C-165.83071426 53.1372146 -164.42247172 51.56124945 -163 50 C-162.34 50 -161.68 50 -161 50 C-160.7421875 49.40703125 -160.484375 48.8140625 -160.21875 48.203125 C-158.89387835 45.8081647 -157.58393349 44.50938647 -155.5 42.75 C-154.78585938 42.14671875 -154.07171875 41.5434375 -153.3359375 40.921875 C-152.56507813 40.28765625 -151.79421875 39.6534375 -151 39 C-150.20851562 38.34515625 -149.41703125 37.6903125 -148.6015625 37.015625 C-137.43965379 27.93116933 -125.68031842 20.74260579 -113 14 C-112.36070557 13.65372559 -111.72141113 13.30745117 -111.06274414 12.95068359 C-77.02684592 -4.89152145 -37.03471721 -6.60709156 0 0 Z " fill="#FE7265" transform="translate(351,74)"/>
<path d="M0 0 C3.427838 3.12926584 6.38103141 6.55752576 9.33203125 10.12890625 C10.32203125 11.11890625 10.32203125 11.11890625 11.33203125 12.12890625 C11.79351562 11.49984375 12.255 10.87078125 12.73046875 10.22265625 C22.33319065 -2.37854403 34.51688088 -11.12895074 50.33203125 -13.87109375 C64.26473507 -15.15529499 78.76957673 -12.53502785 89.95703125 -3.828125 C100.5441583 5.32532859 108.22054534 16.21943221 109.5546875 30.51464844 C110.72399152 56.28973788 101.56513399 75.61118222 84.39453125 94.75390625 C73.41970912 106.58077366 62.15808598 118.30577703 49.33203125 128.12890625 C47.95042042 129.22479667 46.57034617 130.32262572 45.19140625 131.421875 C17.23446924 153.59347936 17.23446924 153.59347936 8.52099609 153.46386719 C4.55966847 152.85769481 1.78715017 150.61940271 -1.35546875 148.25390625 C-2.04535889 147.75648926 -2.73524902 147.25907227 -3.44604492 146.74658203 C-5.5367347 145.22857515 -7.60456221 143.68373374 -9.66796875 142.12890625 C-10.26899414 141.68095703 -10.87001953 141.23300781 -11.48925781 140.77148438 C-15.26499248 137.95095262 -18.97710901 135.05960187 -22.66796875 132.12890625 C-23.60125 131.39027344 -24.53453125 130.65164063 -25.49609375 129.890625 C-50.61579967 109.68720438 -79.71380353 84.44079644 -85.66796875 51.12890625 C-87.07409318 32.21507803 -84.73049569 17.91496837 -72.77734375 2.7265625 C-53.05991336 -19.28621761 -21.69633299 -18.00624801 0 0 Z " fill="#FEFCF6" transform="translate(304.66796875,187.87109375)"/>
<path d="M0 0 C1 2 1 2 0.4765625 3.91796875 C0.19554687 4.66691406 -0.08546875 5.41585937 -0.375 6.1875 C-1.77039471 10.11997599 -2.49163095 13.84831942 -3 18 C-3.33 18.66 -3.66 19.32 -4 20 C-4.66 20 -5.32 20 -6 20 C-6.1340625 21.12921875 -6.268125 22.2584375 -6.40625 23.421875 C-6.98454573 28.05231332 -7.73934221 32.64668463 -8.5 37.25 C-9.57478249 43.81391879 -10.38730695 50.29198847 -10.69140625 56.9453125 C-10.79324219 57.62335938 -10.89507812 58.30140625 -11 59 C-11.99 59.495 -11.99 59.495 -13 60 C-18.30840798 44.07477606 -8.25695407 16.85579666 -2 2 C-1.34 1.34 -0.68 0.68 0 0 Z " fill="#FD6F5A" transform="translate(153,178)"/>
<path d="M0 0 C4.10807709 3.88318236 7.42059875 8.06649795 10.75 12.625 C15.65009934 19.24604375 20.72790449 25.66970611 26 32 C27.6913769 34.05935323 29.37669663 36.12357251 31.0625 38.1875 C31.81660156 39.10917969 32.57070312 40.03085937 33.34765625 40.98046875 C33.89292969 41.64691406 34.43820313 42.31335938 35 43 C34.01 43.33 33.02 43.66 32 44 C26.2651372 37.03416918 20.59658153 30.0201176 14.98730469 22.95288086 C13.06647799 20.54046668 11.18255169 18.18255169 9 16 C7.99942392 14.55627184 7.02272288 13.09587576 6.0625 11.625 C4.54406604 9.30268924 3.04896839 7.06084295 1.30859375 4.8984375 C0 3 0 3 0 0 Z " fill="#FC644E" transform="translate(188,367)"/>
<path d="M0 0 C-1.57024463 3.64126997 -3.82555685 6.22451169 -6.4375 9.1875 C-14.50304305 18.58037881 -20.94633169 29.23010173 -27 40 C-27.73828125 38.43359375 -27.73828125 38.43359375 -28 36 C-26.83090223 33.52656179 -25.63961361 31.36035978 -24.1875 29.0625 C-23.78096191 28.4037085 -23.37442383 27.74491699 -22.95556641 27.06616211 C-5.93327225 0 -5.93327225 0 0 0 Z " fill="#FD644C" transform="translate(186,129)"/>
<path d="M0 0 C0.33 0.99 0.66 1.98 1 3 C-0.34674692 5.55730595 -1.73681455 7.90145657 -3.3125 10.3125 C-3.98949951 11.36751709 -3.98949951 11.36751709 -4.68017578 12.44384766 C-7.83008048 17.30890656 -11.05918185 22.12151046 -14.375 26.875 C-14.98081909 27.757323 -14.98081909 27.757323 -15.59887695 28.6574707 C-17.74706049 31.67010723 -19.46999545 33.72661936 -23 35 C-19.65278625 29.64852755 -16.28159163 24.33413131 -12.625 19.1875 C-8.19236897 12.93738927 -4.10846955 6.46548269 0 0 Z " fill="#FC644D" transform="translate(459,344)"/>
<path d="M0 0 C4.49295252 3.66771634 8.34805179 7.41617627 12.08984375 11.83984375 C14.97970269 15.10792554 18.12891785 18.10016501 21.27734375 21.1171875 C23 23 23 23 23 25 C19.93353041 23.63212231 17.82973187 22.07686868 15.46875 19.69921875 C14.82292969 19.05146484 14.17710937 18.40371094 13.51171875 17.73632812 C12.84785156 17.06021484 12.18398438 16.38410156 11.5 15.6875 C10.83613281 15.02298828 10.17226563 14.35847656 9.48828125 13.67382812 C0 4.10032279 0 4.10032279 0 0 Z " fill="#FC634D" transform="translate(246,437)"/>
<path d="M0 0 C3.2586636 1.4264578 5.4024854 3.16704162 7.890625 5.6953125 C8.95410156 6.76845703 8.95410156 6.76845703 10.0390625 7.86328125 C11.13347656 8.98283203 11.13347656 8.98283203 12.25 10.125 C12.99507813 10.87910156 13.74015625 11.63320313 14.5078125 12.41015625 C16.3431342 14.26900772 18.1736191 16.13237005 20 18 C19.01 18.33 18.02 18.66 17 19 C16.15695312 18.14535156 15.31390625 17.29070312 14.4453125 16.41015625 C13.33867407 15.29413953 12.23189598 14.17826128 11.125 13.0625 C10.56941406 12.49853516 10.01382812 11.93457031 9.44140625 11.35351562 C6.5078429 8.30139972 6.5078429 8.30139972 3 6 C3 5.34 3 4.68 3 4 C2.34 4 1.68 4 1 4 C0.67 2.68 0.34 1.36 0 0 Z " fill="#FB614B" transform="translate(293,486)"/>
<path d="M0 0 C3.40376037 0.59490502 5.20541863 1.75450161 7.75 4.0625 C8.43578125 4.68382813 9.1215625 5.30515625 9.828125 5.9453125 C13.29348308 9.22369083 16.66714492 12.58736914 20 16 C19.67 16.99 19.34 17.98 19 19 C12.66666667 12.66666667 6.33333333 6.33333333 0 0 Z " fill="#FD644F" transform="translate(431,116)"/>
<path d="M0 0 C1.85778216 2.78667324 2.59421952 4.61634293 3.47265625 7.78125 C3.73240234 8.70550781 3.99214844 9.62976563 4.25976562 10.58203125 C4.65711914 12.02642578 4.65711914 12.02642578 5.0625 13.5 C5.59460093 15.40637598 6.12713423 17.31263135 6.66015625 19.21875 C6.89355713 20.06373047 7.12695801 20.90871094 7.36743164 21.77929688 C7.86694025 23.53287863 8.42341021 25.27023063 9 27 C8.01 27 7.02 27 6 27 C4.9804093 24.00630815 3.98805849 21.0042319 3 18 C2.71382812 17.16082031 2.42765625 16.32164062 2.1328125 15.45703125 C0.38152611 10.0780802 -0.3141694 5.6550492 0 0 Z " fill="#FD664F" transform="translate(145,277)"/>
<path d="M0 0 C0 0.33 0 0.66 0 1 C-8.91 0.67 -17.82 0.34 -27 0 C-23.67088315 -6.65823369 -5.8670513 -1.79603611 0 0 Z " fill="#FD634C" transform="translate(340,73)"/>
<path d="M0 0 C0.91790413 2.49749524 1.12393019 3.66134523 0.19555664 6.19824219 C-0.22862549 6.97329102 -0.65280762 7.74833984 -1.08984375 8.546875 C-1.54423828 9.39121094 -1.99863281 10.23554688 -2.46679688 11.10546875 C-2.95212891 11.97816406 -3.43746094 12.85085938 -3.9375 13.75 C-4.41896484 14.63816406 -4.90042969 15.52632813 -5.39648438 16.44140625 C-6.58694956 18.63374808 -7.78833726 20.81932384 -9 23 C-9.66 23 -10.32 23 -11 23 C-9.44347945 17.6462535 -7.0182491 12.99849053 -4.375 8.125 C-3.95476562 7.34125 -3.53453125 6.5575 -3.1015625 5.75 C-2.0718978 3.83107943 -1.03652433 1.91522397 0 0 Z " fill="#FC6249" transform="translate(472,319)"/>
<path d="M0 0 C6.15160192 4.47389231 11.42239045 10.26567614 15 17 C13.35 17 11.7 17 10 17 C10 16.01 10 15.02 10 14 C8.37905718 12.07802494 6.75608423 10.28930744 5 8.5 C0 3.40540541 0 3.40540541 0 0 Z " fill="#FD664F" transform="translate(228,417)"/>
<path d="M0 0 C3.48846099 1.16282033 3.64041683 1.63109739 5.26171875 4.74609375 C5.85629883 5.87821289 5.85629883 5.87821289 6.46289062 7.03320312 C6.86701172 7.82662109 7.27113281 8.62003906 7.6875 9.4375 C8.10322266 10.22705078 8.51894531 11.01660156 8.94726562 11.83007812 C12 17.70997537 12 17.70997537 12 20 C11.34 20 10.68 20 10 20 C8.51706418 17.23116804 7.03931138 14.4596027 5.5625 11.6875 C5.14162109 10.90181641 4.72074219 10.11613281 4.28710938 9.30664062 C3.88427734 8.54931641 3.48144531 7.79199219 3.06640625 7.01171875 C2.69459229 6.31522217 2.32277832 5.61872559 1.93969727 4.90112305 C1 3 1 3 0 0 Z " fill="#FD644E" transform="translate(466,155)"/>
<path d="M0 0 C2.125 0.375 2.125 0.375 4 1 C3.01257813 1.83144531 2.02515625 2.66289063 1.0078125 3.51953125 C-0.2866259 4.61698989 -1.58088754 5.71465704 -2.875 6.8125 C-3.52597656 7.35970703 -4.17695313 7.90691406 -4.84765625 8.47070312 C-5.47285156 9.00244141 -6.09804687 9.53417969 -6.7421875 10.08203125 C-7.60626221 10.81256714 -7.60626221 10.81256714 -8.48779297 11.55786133 C-10.24168788 13.12494496 -10.24168788 13.12494496 -12 16 C-12.66 15.67 -13.32 15.34 -14 15 C-11.225761 10.26067505 -8.01006394 7.0386196 -3.8046875 3.515625 C-1.91675177 1.97457228 -1.91675177 1.97457228 0 0 Z " fill="#FD634B" transform="translate(202,111)"/>
<path d="M0 0 C5.1711115 4.54431011 8.44663108 10.15281368 12 16 C11.34 16.66 10.68 17.32 10 18 C8.32480882 15.56798137 6.65974866 13.13002202 5 10.6875 C4.52304688 9.99720703 4.04609375 9.30691406 3.5546875 8.59570312 C2.87792969 7.59506836 2.87792969 7.59506836 2.1875 6.57421875 C1.55908203 5.65515747 1.55908203 5.65515747 0.91796875 4.7175293 C0 3 0 3 0 0 Z " fill="#FC644C" transform="translate(176,349)"/>
<path d="M0 0 C-2.26481507 1.67542462 -4.53614326 3.34039016 -6.8125 5 C-7.45509766 5.47695312 -8.09769531 5.95390625 -8.75976562 6.4453125 C-9.38173828 6.89648438 -10.00371094 7.34765625 -10.64453125 7.8125 C-11.21534424 8.23144531 -11.78615723 8.65039062 -12.37426758 9.08203125 C-14 10 -14 10 -17 10 C-14.14935363 6.97118824 -11.18744908 4.22495927 -7.9375 1.625 C-7.28652344 1.10164063 -6.63554687 0.57828125 -5.96484375 0.0390625 C-3.49332565 -1.26794309 -2.59504981 -0.7809787 0 0 Z " fill="#FD634C" transform="translate(224,99)"/>
<path d="M0 0 C3.55736507 1.4671173 5.44195167 3.3706419 7.8125 6.375 C8.43769531 7.14585937 9.06289063 7.91671875 9.70703125 8.7109375 C11 11 11 11 10.69921875 13.2890625 C10.46847656 13.85367188 10.23773438 14.41828125 10 15 C8.70462174 13.2527456 7.41383727 11.50208483 6.125 9.75 C5.40570313 8.77546875 4.68640625 7.8009375 3.9453125 6.796875 C2.39017775 4.56097846 1.11795777 2.47127507 0 0 Z " fill="#FD6551" transform="translate(452,136)"/>
<path d="M0 0 C0.33 0.99 0.66 1.98 1 3 C-2.3 6.63 -5.6 10.26 -9 14 C-9.66 13.67 -10.32 13.34 -11 13 C-10.06027344 11.96939453 -10.06027344 11.96939453 -9.1015625 10.91796875 C-8.28429687 10.01691406 -7.46703125 9.11585938 -6.625 8.1875 C-5.81289063 7.29417969 -5.00078125 6.40085937 -4.1640625 5.48046875 C-1.90927093 3.00367326 -1.90927093 3.00367326 0 0 Z " fill="#FD624A" transform="translate(402,420)"/>
<path d="M0 0 C5.29333218 0.51642265 8.63789377 2.09192918 13 5 C13.33 5.99 13.66 6.98 14 8 C8.76481294 6.56032356 4.36973991 4.18303389 0 1 C0 0.67 0 0.34 0 0 Z " fill="#FD654E" transform="translate(392,90)"/>
<path d="M0 0 C1.8871875 0.0309375 1.8871875 0.0309375 3.8125 0.0625 C4.1425 0.7225 4.4725 1.3825 4.8125 2.0625 C0.1925 2.7225 -4.4275 3.3825 -9.1875 4.0625 C-6.53873473 0.0893521 -4.49238456 -0.07364565 0 0 Z " fill="#FE654F" transform="translate(267.1875,77.9375)"/>
<path d="M0 0 C0.33 0.99 0.66 1.98 1 3 C-1.97 5.97 -4.94 8.94 -8 12 C-8.66 11.67 -9.32 11.34 -10 11 C-6.7 7.37 -3.4 3.74 0 0 Z " fill="#FC5E48" transform="translate(381,444)"/>
<path d="M0 0 C-1.78881736 1.00508801 -3.58114696 2.00392736 -5.375 3 C-6.37273437 3.556875 -7.37046875 4.11375 -8.3984375 4.6875 C-11 6 -11 6 -13 6 C-13 5.34 -13 4.68 -13 4 C-11.59248779 3.13083113 -10.1735479 2.28014851 -8.75 1.4375 C-7.96109375 0.96183594 -7.1721875 0.48617187 -6.359375 -0.00390625 C-3.69155375 -1.13022151 -2.65498232 -1.0169313 0 0 Z " fill="#FD634B" transform="translate(240,90)"/>
<path d="M0 0 C3.39192363 0.59283621 5.2107757 1.76743189 7.75 4.0625 C8.67039062 4.88427734 8.67039062 4.88427734 9.609375 5.72265625 C10.29773438 6.35494141 10.29773438 6.35494141 11 7 C10.01 7.33 9.02 7.66 8 8 C5.95703125 6.6015625 5.95703125 6.6015625 3.8125 4.625 C3.09707031 3.97789063 2.38164062 3.33078125 1.64453125 2.6640625 C0 1 0 1 0 0 Z " fill="#FD6D57" transform="translate(431,116)"/>
<path d="M0 0 C1.43791516 0.14168137 2.8753237 0.28851043 4.3125 0.4375 C5.11300781 0.51871094 5.91351563 0.59992188 6.73828125 0.68359375 C9 1 9 1 12 2 C11.67 2.99 11.34 3.98 11 5 C7.37 3.68 3.74 2.36 0 1 C0 0.67 0 0.34 0 0 Z " fill="#FD614B" transform="translate(366,80)"/>
<path d="M0 0 C0.66 0 1.32 0 2 0 C0.5140084 4.59306496 -1.85014682 7.43569245 -5 11 C-5.66 10.67 -6.32 10.34 -7 10 C-5.88321917 8.3278148 -4.75633648 6.66237197 -3.625 5 C-2.99851562 4.071875 -2.37203125 3.14375 -1.7265625 2.1875 C-1.15679687 1.465625 -0.58703125 0.74375 0 0 Z " fill="#FD5F46" transform="translate(434,380)"/>
<path d="M0 0 C3.40756081 2.27170721 3.8695411 3.17383143 5 7 C5.125 10.3125 5.125 10.3125 5 13 C2.53698577 10.53698577 2.23233479 8.72639964 1.375 5.375 C1.11460937 4.37210938 0.85421875 3.36921875 0.5859375 2.3359375 C0.39257812 1.56507813 0.19921875 0.79421875 0 0 Z " fill="#FC624E" transform="translate(480,183)"/>
<path d="M0 0 C0.66 0.33 1.32 0.66 2 1 C2.17835515 5.54805635 1.99785435 8.8794254 0 13 C-0.66 12.67 -1.32 12.34 -2 12 C-1.34 8.04 -0.68 4.08 0 0 Z " fill="#FD7D6A" transform="translate(143,259)"/>
<path d="M0 0 C1 2 1 2 0.22265625 4.3828125 C-0.16019531 5.28773438 -0.54304687 6.19265625 -0.9375 7.125 C-1.31777344 8.03507813 -1.69804687 8.94515625 -2.08984375 9.8828125 C-2.39019531 10.58148438 -2.69054687 11.28015625 -3 12 C-3.33 12 -3.66 12 -4 12 C-3.28571429 3.42857143 -3.28571429 3.42857143 0 0 Z " fill="#FD634B" transform="translate(153,178)"/>
<path d="M0 0 C-2.6598561 3.44216672 -5.90288286 3.99504674 -10 5 C-8.20177069 -0.39468792 -5.09771267 -0.22656501 0 0 Z " fill="#FD6746" transform="translate(251,84)"/>
<path d="M0 0 C-3.47385433 2.31590289 -4.96430006 2.26991835 -9.0625 2.25 C-10.12597656 2.25515625 -11.18945312 2.2603125 -12.28515625 2.265625 C-15 2 -15 2 -17 0 C-11.23073111 -1.40333568 -5.81856895 -0.67296616 0 0 Z " fill="#FE8073" transform="translate(323,73)"/>
<path d="M0 0 C0.66 0 1.32 0 2 0 C0.7508258 3.45925163 -0.67527795 6.14693203 -3 9 C-3.99 8.67 -4.98 8.34 -6 8 C-5.04956626 6.66102417 -4.08940853 5.32894573 -3.125 4 C-2.59132813 3.2575 -2.05765625 2.515 -1.5078125 1.75 C-1.01023437 1.1725 -0.51265625 0.595 0 0 Z " fill="#FC634B" transform="translate(425,392)"/>
<path d="M0 0 C2.97246802 2.54782974 4.41535288 5.45340883 6 9 C6 9.66 6 10.32 6 11 C5.34 11 4.68 11 4 11 C0 4.5 0 4.5 0 0 Z " fill="#FD6148" transform="translate(164,328)"/>
<path d="M0 0 C2.33936818 2.12669835 3.80653848 4.06224856 5 7 C5 7.99 5 8.98 5 10 C4.34 10 3.68 10 3 10 C0.96564469 6.27034861 0 4.33094958 0 0 Z " fill="#FC634D" transform="translate(158,316)"/>
<path d="M0 0 C0.33 0 0.66 0 1 0 C1.4726477 8.19256018 1.4726477 8.19256018 -0.5 11.5625 C-0.995 12.036875 -1.49 12.51125 -2 13 C-2.05447047 11.58376784 -2.09300508 10.16691809 -2.125 8.75 C-2.14820313 7.96109375 -2.17140625 7.1721875 -2.1953125 6.359375 C-1.9828378 3.79268059 -1.28654105 2.2083933 0 0 Z " fill="#FB7B6A" transform="translate(491,221)"/>
<path d="M0 0 C3.12290635 0.48578543 5.99580359 0.9986012 9 2 C9.33 2.99 9.66 3.98 10 5 C8.51800098 4.55090939 7.03944764 4.09043436 5.5625 3.625 C4.73878906 3.36976562 3.91507812 3.11453125 3.06640625 2.8515625 C1 2 1 2 0 0 Z " fill="#FD634F" transform="translate(381,85)"/>
<path d="M0 0 C-0.66 0 -1.32 0 -2 0 C-2 0.66 -2 1.32 -2 2 C-1.34 2.33 -0.68 2.66 0 3 C-7.75 2.25 -7.75 2.25 -10 0 C-3.375 -1.125 -3.375 -1.125 0 0 Z " fill="#FE624B" transform="translate(365,77)"/>
<path d="M0 0 C3.34373475 0.55728913 6.03312999 1.35173889 9 3 C9 3.99 9 4.98 9 6 C5.06326356 4.68775452 2.77280706 3.08089673 0 0 Z " fill="#FD6242" transform="translate(408,99)"/>
<path d="M0 0 C3.36720387 1.39332574 4.9859524 2.9789286 7 6 C6.01 6.495 6.01 6.495 5 7 C4.34 6.67 3.68 6.34 3 6 C3 5.34 3 4.68 3 4 C2.34 4 1.68 4 1 4 C0.67 2.68 0.34 1.36 0 0 Z " fill="#FE6E4D" transform="translate(293,486)"/>
<path d="M0 0 C0.33 0.99 0.66 1.98 1 3 C-0.40445835 5.2636564 -2.1967913 7.0208685 -4 9 C-4.66 8.67 -5.32 8.34 -6 8 C-4.02 5.36 -2.04 2.72 0 0 Z " fill="#FC5D43" transform="translate(442,370)"/>
<path d="M0 0 C0.66 0 1.32 0 2 0 C5.11450382 4.15267176 5.11450382 4.15267176 4.6875 7.3125 C4.460625 7.869375 4.23375 8.42625 4 9 C0 2.25 0 2.25 0 0 Z " fill="#FD624C" transform="translate(170,340)"/>
<path d="M0 0 C0.99 0.495 0.99 0.495 2 1 C2.73075648 3.3140622 3.40138258 5.64828869 4 8 C3.01 8.495 3.01 8.495 2 9 C0.14223235 5.86501708 -0.20140476 3.62528568 0 0 Z " fill="#FC634B" transform="translate(154,306)"/>
<path d="M0 0 C4.67692308 1.47692308 4.67692308 1.47692308 6.3125 4.125 C6.539375 4.74375 6.76625 5.3625 7 6 C4.50638429 4.79618552 2.31856917 3.54571278 0 2 C0 1.34 0 0.68 0 0 Z " fill="#FD624B" transform="translate(418,105)"/>
<path d="M0 0 C-0.66 1.32 -1.32 2.64 -2 4 C-3.65 3.67 -5.3 3.34 -7 3 C-7 2.34 -7 1.68 -7 1 C-2.25 0 -2.25 0 0 0 Z " fill="#FA6254" transform="translate(322,506)"/>
<path d="M0 0 C4 1 4 1 4 1 Z " fill="#FFDF20" transform="translate(337,70)"/>
<path d="" fill="#FFD42A" transform="translate(0,0)"/>
<path d="" fill="#FF8877" transform="translate(0,0)"/>
<path d="M0 0 C0.99 0.495 0.99 0.495 2 1 C1.01 1.495 1.01 1.495 0 2 C0 1.34 0 0.68 0 0 Z " fill="#FFD42A" transform="translate(237,86)"/>
<path d="M0 0 C3 1 3 1 3 1 Z " fill="#FFC61C" transform="translate(386,84)"/>
<path d="" fill="#FFBF40" transform="translate(0,0)"/>
<path d="" fill="#FFD42A" transform="translate(0,0)"/>
<path d="" fill="#FFFF00" transform="translate(0,0)"/>
<path d="M0 0 C2 1 2 1 2 1 Z " fill="#FFBF40" transform="translate(154,315)"/>
<path d="" fill="#FF4040" transform="translate(0,0)"/>
<path d="" fill="#FFBF40" transform="translate(0,0)"/>
<path d="" fill="#FFBF40" transform="translate(0,0)"/>
<path d="" fill="#FFBF40" transform="translate(0,0)"/>
<path d="" fill="#FFBF40" transform="translate(0,0)"/>
<path d="" fill="#FFBF40" transform="translate(0,0)"/>
<path d="M0 0 C2 1 2 1 2 1 Z " fill="#FFD42A" transform="translate(213,100)"/>
<path d="M0 0 C2 1 2 1 2 1 Z " fill="#FFBF40" transform="translate(401,92)"/>
<path d="M0 0 C2 1 2 1 2 1 Z " fill="#FF4040" transform="translate(291,70)"/>
<path d="" fill="#FFFF00" transform="translate(0,0)"/>
<path d="" fill="#FFFF00" transform="translate(0,0)"/>
<path d="" fill="#FFAA55" transform="translate(0,0)"/>
<path d="" fill="#FFFF00" transform="translate(0,0)"/>
<path d="" fill="#FFFF00" transform="translate(0,0)"/>
<path d="" fill="#FFAA55" transform="translate(0,0)"/>
<path d="" fill="#FF8080" transform="translate(0,0)"/>
<path d="" fill="#FFFF00" transform="translate(0,0)"/>
<path d="" fill="#FF0000" transform="translate(0,0)"/>
<path d="" fill="#FF5555" transform="translate(0,0)"/>
<path d="" fill="#FFFF00" transform="translate(0,0)"/>
<path d="" fill="#FFFF00" transform="translate(0,0)"/>
<path d="" fill="#FFFF00" transform="translate(0,0)"/>
<path d="" fill="#FF6666" transform="translate(0,0)"/>
<path d="" fill="#FFFF00" transform="translate(0,0)"/>
<path d="" fill="#FF8080" transform="translate(0,0)"/>
<path d="" fill="#FFFF00" transform="translate(0,0)"/>
<path d="" fill="#FFFF00" transform="translate(0,0)"/>
<path d="" fill="#FFFF00" transform="translate(0,0)"/>
<path d="" fill="#FFFF00" transform="translate(0,0)"/>
<path d="" fill="#FFFF00" transform="translate(0,0)"/>
<path d="" fill="#FF8080" transform="translate(0,0)"/>
<path d="" fill="#FFFF00" transform="translate(0,0)"/>
<path d="" fill="#FF9966" transform="translate(0,0)"/>
<path d="" fill="#FFFF00" transform="translate(0,0)"/>
<path d="" fill="#FF8080" transform="translate(0,0)"/>
<path d="" fill="#FF8080" transform="translate(0,0)"/>
<path d="" fill="#FF8080" transform="translate(0,0)"/>
<path d="" fill="#FFFF00" transform="translate(0,0)"/>
<path d="" fill="#FFFF00" transform="translate(0,0)"/>
<path d="" fill="#FF8080" transform="translate(0,0)"/>
<path d="" fill="#FF8080" transform="translate(0,0)"/>
<path d="" fill="#FFFF00" transform="translate(0,0)"/>
<path d="" fill="#FFFF00" transform="translate(0,0)"/>
<path d="" fill="#FF8080" transform="translate(0,0)"/>
<path d="" fill="#FF0000" transform="translate(0,0)"/>
<path d="" fill="#FFFF00" transform="translate(0,0)"/>
<path d="" fill="#FFFF00" transform="translate(0,0)"/>
<path d="" fill="#FF0000" transform="translate(0,0)"/>
<path d="" fill="#FF8080" transform="translate(0,0)"/>
<path d="" fill="#FF8080" transform="translate(0,0)"/>
<path d="" fill="#FF8080" transform="translate(0,0)"/>
<path d="" fill="#FFFF00" transform="translate(0,0)"/>
<path d="" fill="#FFFF00" transform="translate(0,0)"/>
<path d="" fill="#FF8080" transform="translate(0,0)"/>
<path d="" fill="#FFFF00" transform="translate(0,0)"/>
<path d="" fill="#FF8080" transform="translate(0,0)"/>
<path d="" fill="#FFFF00" transform="translate(0,0)"/>
<path d="" fill="#FFAA55" transform="translate(0,0)"/>
<path d="" fill="#FFFF00" transform="translate(0,0)"/>
<path d="" fill="#FF8080" transform="translate(0,0)"/>
<path d="" fill="#FFFF00" transform="translate(0,0)"/>
<path d="" fill="#FFFF00" transform="translate(0,0)"/>
<path d="" fill="#FF8080" transform="translate(0,0)"/>
<path d="" fill="#FFFF00" transform="translate(0,0)"/>
<path d="" fill="#FFFF00" transform="translate(0,0)"/>
<path d="" fill="#FFFF00" transform="translate(0,0)"/>
<path d="" fill="#FFFF00" transform="translate(0,0)"/>
<path d="" fill="#FFFF00" transform="translate(0,0)"/>
<path d="" fill="#FFFF00" transform="translate(0,0)"/>
<path d="" fill="#FFFF00" transform="translate(0,0)"/>
<path d="" fill="#FFFF00" transform="translate(0,0)"/>
<path d="" fill="#FFFF00" transform="translate(0,0)"/>
<path d="" fill="#FFFF00" transform="translate(0,0)"/>
<path d="" fill="#FF8080" transform="translate(0,0)"/>
<path d="" fill="#FFFF00" transform="translate(0,0)"/>
<path d="" fill="#FF8080" transform="translate(0,0)"/>
<path d="" fill="#FFFF00" transform="translate(0,0)"/>
<path d="" fill="#FF8080" transform="translate(0,0)"/>
<path d="" fill="#FFFF00" transform="translate(0,0)"/>
<path d="" fill="#FFFF00" transform="translate(0,0)"/>
<path d="" fill="#FF0000" transform="translate(0,0)"/>
<path d="" fill="#FFAA55" transform="translate(0,0)"/>
<path d="" fill="#FFFF00" transform="translate(0,0)"/>
<path d="" fill="#FFFF00" transform="translate(0,0)"/>
<path d="" fill="#FFAA55" transform="translate(0,0)"/>
<path d="" fill="#FF8080" transform="translate(0,0)"/>
<path d="" fill="#FF0000" transform="translate(0,0)"/>
<path d="" fill="#FFFF00" transform="translate(0,0)"/>
<path d="" fill="#FF8080" transform="translate(0,0)"/>
<path d="" fill="#FFFF00" transform="translate(0,0)"/>
<path d="" fill="#FFFF00" transform="translate(0,0)"/>
<path d="" fill="#FFFF00" transform="translate(0,0)"/>
<path d="" fill="#FFFF00" transform="translate(0,0)"/>
<path d="" fill="#FF8080" transform="translate(0,0)"/>
<path d="" fill="#FF8080" transform="translate(0,0)"/>
<path d="" fill="#FF0000" transform="translate(0,0)"/>
<path d="" fill="#FF8080" transform="translate(0,0)"/>
<path d="" fill="#FFFF00" transform="translate(0,0)"/>
<path d="" fill="#FFAA55" transform="translate(0,0)"/>
<path d="" fill="#FFFF00" transform="translate(0,0)"/>
<path d="" fill="#FF8080" transform="translate(0,0)"/>
<path d="" fill="#FFFF00" transform="translate(0,0)"/>
<path d="" fill="#FFFF00" transform="translate(0,0)"/>
<path d="" fill="#FF8080" transform="translate(0,0)"/>
<path d="" fill="#FF8080" transform="translate(0,0)"/>
<path d="" fill="#FFAA55" transform="translate(0,0)"/>
<path d="" fill="#FF8080" transform="translate(0,0)"/>
<path d="" fill="#FF8080" transform="translate(0,0)"/>
<path d="" fill="#FF8080" transform="translate(0,0)"/>
<path d="" fill="#FF8080" transform="translate(0,0)"/>
<path d="" fill="#FF0000" transform="translate(0,0)"/>
</svg>
